<svg width="24" height="24" viewBox="0 0 24 24" fill="none" xmlns="http://www.w3.org/2000/svg">
<path fill-rule="evenodd" clip-rule="evenodd" d="M9.4388 4.98403C8.5971 4.53583 7.6261 4.39309 6.69102 4.58011C5.75594 4.76712 4.91454 5.27234 4.30996 6.0098C3.70539 6.74726 3.375 7.6714 3.375 8.625C3.375 11.4673 5.49147 14.1802 7.81422 16.2707C8.95292 17.2955 10.095 18.1296 10.954 18.708C11.3828 18.9967 11.7393 19.2205 11.9871 19.3713C11.9914 19.3739 11.9957 19.3765 12 19.3791C12.0043 19.3765 12.0086 19.3739 12.0129 19.3713C12.2607 19.2205 12.6172 18.9967 13.046 18.708C13.905 18.1296 15.0471 17.2955 16.1858 16.2707C18.5085 14.1802 20.625 11.4673 20.625 8.625C20.625 7.6714 20.2946 6.74726 19.69 6.0098C19.0855 5.27234 18.2441 4.76712 17.309 4.58011C16.3739 4.39309 15.4029 4.53583 14.5612 4.98403C13.7195 5.43223 13.0591 6.15822 12.6923 7.03846C12.5759 7.31795 12.3028 7.5 12 7.5C11.6972 7.5 11.4241 7.31795 11.3077 7.03846C10.9409 6.15822 10.2805 5.43223 9.4388 4.98403ZM12 20.25C11.6335 20.9044 11.6333 20.9043 11.6331 20.9041L11.6325 20.9038L11.6305 20.9027L11.6241 20.899L11.6012 20.8861C11.5816 20.8749 11.5534 20.8586 11.5171 20.8375C11.4446 20.7952 11.3398 20.7333 11.2073 20.6526C10.9424 20.4914 10.5664 20.2553 10.1163 19.9522C9.21747 19.347 8.01583 18.4701 6.81078 17.3856C4.44603 15.2573 1.875 12.1577 1.875 8.625C1.875 7.32464 2.32553 6.06444 3.14995 5.05881C3.97437 4.05319 5.12174 3.36426 6.39685 3.10923C7.67196 2.85421 8.99604 3.04885 10.1438 3.66004C10.8766 4.05024 11.5086 4.59484 12 5.25C12.4914 4.59484 13.1234 4.05024 13.8562 3.66004C15.004 3.04885 16.328 2.85421 17.6032 3.10923C18.8783 3.36426 20.0256 4.05319 20.85 5.05881C21.6745 6.06444 22.125 7.32464 22.125 8.625C22.125 12.1577 19.554 15.2573 17.1892 17.3856C15.9842 18.4701 14.7825 19.347 13.8837 19.9522C13.4336 20.2553 13.0576 20.4914 12.7927 20.6526C12.6602 20.7333 12.5554 20.7952 12.4829 20.8375C12.4466 20.8586 12.4184 20.8749 12.3988 20.8861L12.3759 20.899L12.3695 20.9027L12.3675 20.9038L12.3669 20.9041C12.3667 20.9043 12.3665 20.9044 12 20.25ZM12 20.25L12.3665 20.9044C12.1388 21.0319 11.8612 21.0319 11.6335 20.9044L12 20.25Z" fill="#25201A"/>
</svg>
