<svg width="24" height="24" viewBox="0 0 24 24" fill="none" xmlns="http://www.w3.org/2000/svg">
<g id="Iconly/Light-Outline/Document">
<g id="Document">
<path id="Fill 1" fill-rule="evenodd" clip-rule="evenodd" d="M15.7158 16.9738H8.49585C8.08185 16.9738 7.74585 16.6378 7.74585 16.2238C7.74585 15.8098 8.08185 15.4738 8.49585 15.4738H15.7158C16.1298 15.4738 16.4658 15.8098 16.4658 16.2238C16.4658 16.6378 16.1298 16.9738 15.7158 16.9738" fill="black"/>
<path id="Fill 3" fill-rule="evenodd" clip-rule="evenodd" d="M15.7158 12.7873H8.49585C8.08185 12.7873 7.74585 12.4513 7.74585 12.0373C7.74585 11.6233 8.08185 11.2873 8.49585 11.2873H15.7158C16.1298 11.2873 16.4658 11.6233 16.4658 12.0373C16.4658 12.4513 16.1298 12.7873 15.7158 12.7873" fill="black"/>
<path id="Fill 5" fill-rule="evenodd" clip-rule="evenodd" d="M11.2506 8.61053H8.49561C8.08161 8.61053 7.74561 8.27453 7.74561 7.86053C7.74561 7.44653 8.08161 7.11053 8.49561 7.11053H11.2506C11.6646 7.11053 12.0006 7.44653 12.0006 7.86053C12.0006 8.27453 11.6646 8.61053 11.2506 8.61053" fill="black"/>
<g id="Group 9">
<mask id="mask0_33437_4997" style="mask-type:alpha" maskUnits="userSpaceOnUse" x="3" y="2" width="19" height="20">
<path id="Clip 8" fill-rule="evenodd" clip-rule="evenodd" d="M3 2.00031H21.1647V21.9101H3V2.00031Z" fill="white"/>
</mask>
<g mask="url(#mask0_33437_4997)">
<path id="Fill 7" fill-rule="evenodd" clip-rule="evenodd" d="M15.9088 3.50012L8.21976 3.50412C5.89176 3.51812 4.49976 4.95812 4.49976 7.35712V16.5531C4.49976 18.9681 5.90476 20.4101 8.25576 20.4101L15.9448 20.4071C18.2728 20.3931 19.6648 18.9511 19.6648 16.5531V7.35712C19.6648 4.94212 18.2608 3.50012 15.9088 3.50012ZM8.25676 21.9101C5.11276 21.9101 2.99976 19.7571 2.99976 16.5531V7.35712C2.99976 4.12412 5.04676 2.02312 8.21476 2.00412L15.9078 2.00012H15.9088C19.0528 2.00012 21.1648 4.15312 21.1648 7.35712V16.5531C21.1648 19.7851 19.1178 21.8871 15.9498 21.9071L8.25676 21.9101Z" fill="black"/>
</g>
</g>
</g>
</g>
</svg>
