<svg width="16" height="16" viewBox="0 0 16 16" fill="none" xmlns="http://www.w3.org/2000/svg">
<path d="M7.99967 9.33333C9.47034 9.33333 10.6663 8.13733 10.6663 6.66667C10.6663 5.196 9.47034 4 7.99967 4C6.52901 4 5.33301 5.196 5.33301 6.66667C5.33301 8.13733 6.52901 9.33333 7.99967 9.33333ZM7.99967 5.33333C8.73501 5.33333 9.33301 5.93133 9.33301 6.66667C9.33301 7.402 8.73501 8 7.99967 8C7.26434 8 6.66634 7.402 6.66634 6.66667C6.66634 5.93133 7.26434 5.33333 7.99967 5.33333Z" fill="black"/>
<path d="M7.61274 14.5433C7.72557 14.6239 7.86076 14.6672 7.99941 14.6672C8.13806 14.6672 8.27324 14.6239 8.38607 14.5433C8.58874 14.4 13.3521 10.9607 13.3327 6.66732C13.3327 3.72665 10.9401 1.33398 7.99941 1.33398C5.05874 1.33398 2.66607 3.72665 2.66607 6.66398C2.64674 10.9607 7.41007 14.4 7.61274 14.5433ZM7.99941 2.66732C10.2054 2.66732 11.9994 4.46132 11.9994 6.67065C12.0134 9.62932 9.07407 12.286 7.99941 13.1573C6.92541 12.2853 3.98541 9.62798 3.99941 6.66732C3.99941 4.46132 5.79341 2.66732 7.99941 2.66732Z" fill="black"/>
</svg>
