<svg width="21" height="20" viewBox="0 0 21 20" fill="none" xmlns="http://www.w3.org/2000/svg">
<path fill-rule="evenodd" clip-rule="evenodd" d="M10.7083 7.08203C9.90417 7.08203 9.25 7.7362 9.25 8.5412C9.25 9.34536 9.90417 9.9987 10.7083 9.9987C11.5125 9.9987 12.1667 9.34536 12.1667 8.5412C12.1667 7.7362 11.5125 7.08203 10.7083 7.08203ZM10.7083 11.2487C9.215 11.2487 8 10.0345 8 8.5412C8 7.04703 9.215 5.83203 10.7083 5.83203C12.2017 5.83203 13.4167 7.04703 13.4167 8.5412C13.4167 10.0345 12.2017 11.2487 10.7083 11.2487Z" fill="black"/>
<mask id="mask0_229_422" style="mask-type:alpha" maskUnits="userSpaceOnUse" x="3" y="1" width="15" height="17">
<path fill-rule="evenodd" clip-rule="evenodd" d="M3.83301 1.66602H17.5826V17.916H3.83301V1.66602Z" fill="white"/>
</mask>
<g mask="url(#mask0_229_422)">
<path fill-rule="evenodd" clip-rule="evenodd" d="M10.708 2.91602C7.60634 2.91602 5.08301 5.46352 5.08301 8.59352C5.08301 12.576 9.76967 16.456 10.708 16.6627C11.6463 16.4552 16.333 12.5752 16.333 8.59352C16.333 5.46352 13.8097 2.91602 10.708 2.91602ZM10.708 17.916C9.21301 17.916 3.83301 13.2893 3.83301 8.59352C3.83301 4.77352 6.91717 1.66602 10.708 1.66602C14.4988 1.66602 17.583 4.77352 17.583 8.59352C17.583 13.2893 12.203 17.916 10.708 17.916Z" fill="black"/>
</g>
</svg>
